<?xml version="1.0" standalone="no"?>
<!DOCTYPE svg PUBLIC "-//W3C//DTD SVG 20010904//EN"
 "http://www.w3.org/TR/2001/REC-SVG-20010904/DTD/svg10.dtd">
<svg version="1.0" xmlns="http://www.w3.org/2000/svg"
 width="456.000000pt" height="456.000000pt" fill="#d50045" viewBox="0 0 456.000000 456.000000"
 preserveAspectRatio="xMidYMid meet">

<g transform="translate(0.000000,456.000000) scale(0.100000,-0.100000)"
fill="#d50045" stroke="none">
<path d="M952 3698 l3 -403 799 -5 799 -5 -36 -47 c-20 -26 -85 -109 -145
-185 -166 -211 -378 -483 -417 -533 -46 -59 -271 -347 -299 -382 -11 -15 -70
-90 -131 -168 -60 -78 -155 -199 -210 -269 -55 -71 -111 -143 -125 -161 -14
-18 -68 -88 -120 -154 -165 -211 -147 -167 -155 -363 -4 -94 -4 -246 0 -336
l7 -165 992 -5 c754 -4 1011 -8 1076 -19 49 -7 158 -12 255 -12 165 1 174 2
300 38 112 33 205 69 205 80 0 1 -56 1 -124 -2 -116 -4 -125 -3 -145 17 -28
28 -27 50 9 99 41 57 91 87 190 114 74 20 107 23 260 22 112 -1 204 -6 255
-16 44 -9 81 -14 83 -13 9 7 -193 161 -244 185 -119 57 -172 65 -474 66 -278
0 -332 5 -384 31 l-28 15 32 33 c41 42 153 98 243 122 37 10 67 21 67 24 0 13
-82 39 -173 55 -125 22 -445 15 -527 -11 -46 -15 -109 -18 -391 -22 -194 -3
-344 -1 -353 4 -14 8 6 37 120 184 74 95 143 183 152 194 10 11 37 47 62 80
25 33 47 62 50 65 3 3 28 34 55 70 28 36 55 72 62 80 7 8 105 134 219 280 113
146 217 279 230 295 13 17 60 77 105 135 44 58 91 117 102 132 12 14 120 152
240 306 l217 280 0 336 0 336 -1355 0 -1355 0 2 -402z"/>
</g>
</svg>